<?xml version="1.0" encoding="UTF-8" standalone="no"?>
<!-- Created with Inkscape (http://www.inkscape.org/) -->

<svg
   xmlns:dc="http://purl.org/dc/elements/1.1/"
   xmlns:cc="http://creativecommons.org/ns#"
   xmlns:rdf="http://www.w3.org/1999/02/22-rdf-syntax-ns#"
   xmlns:svg="http://www.w3.org/2000/svg"
   xmlns="http://www.w3.org/2000/svg"
   xmlns:sodipodi="http://sodipodi.sourceforge.net/DTD/sodipodi-0.dtd"
   xmlns:inkscape="http://www.inkscape.org/namespaces/inkscape"
   width="210mm"
   height="297mm"
   viewBox="0 0 210 297"
   version="1.1"
   id="svg8"
   inkscape:version="0.92.0 r"
   sodipodi:docname="stohio.svg">
  <defs
     id="defs2" />
  <sodipodi:namedview
     id="base"
     pagecolor="#ffffff"
     bordercolor="#666666"
     borderopacity="1.0"
     inkscape:pageopacity="0.0"
     inkscape:pageshadow="2"
     inkscape:zoom="2.0596976"
     inkscape:cx="343.78963"
     inkscape:cy="649.83201"
     inkscape:document-units="mm"
     inkscape:current-layer="text3690"
     showgrid="false"
     showguides="true"
     inkscape:guide-bbox="true"
     inkscape:window-width="3200"
     inkscape:window-height="1800"
     inkscape:window-x="0"
     inkscape:window-y="0"
     inkscape:window-maximized="0">
    <sodipodi:guide
       position="-73.734528,147.3406"
       orientation="0,1"
       id="guide4525"
       inkscape:locked="false" />
    <sodipodi:guide
       position="148.36825,103.15127"
       orientation="0,1"
       id="guide4542"
       inkscape:locked="false" />
    <sodipodi:guide
       position="221.07512,125.50285"
       orientation="0,1"
       id="guide4544"
       inkscape:locked="false" />
  </sodipodi:namedview>
  <metadata
     id="metadata5">
    <rdf:RDF>
      <cc:Work
         rdf:about="">
        <dc:format>image/svg+xml</dc:format>
        <dc:type
           rdf:resource="http://purl.org/dc/dcmitype/StillImage" />
        <dc:title></dc:title>
      </cc:Work>
    </rdf:RDF>
  </metadata>
  <g
     inkscape:label="Layer 1"
     inkscape:groupmode="layer"
     id="layer1">
    <g
       aria-label="stohio"
       style="font-style:normal;font-weight:normal;font-size:10.58333302px;line-height:6.61458302px;font-family:sans-serif;letter-spacing:0px;word-spacing:0px;fill:#000000;fill-opacity:1;stroke:none;stroke-width:0.26458332px;stroke-linecap:butt;stroke-linejoin:miter;stroke-opacity:1"
       id="text3690">
      <path
         d="m 59.13217,178.54761 q 0,-3.95111 -3.033889,-6.27945 -0.776111,-0.56444 -2.328334,-1.27 -1.552222,-0.77611 -3.951111,-1.62277 -2.751666,-0.91723 -4.021666,-1.905 -1.552223,-1.27 -1.552223,-3.24556 0,-4.445 5.08,-4.445 3.739445,0 6.138334,2.39889 l 2.116667,-1.83445 q -3.386667,-3.38666 -8.255001,-3.38666 -3.527777,0 -5.715,2.18722 -2.257778,2.11667 -2.257778,5.08 0,3.45722 2.257778,5.29167 1.552222,1.27 5.08,2.54 1.905,0.70555 3.175,1.27 1.340556,0.49389 2.046112,0.91722 2.328333,1.83444 2.328333,4.30389 0,5.64444 -6.632222,5.64444 -3.033889,0 -4.797778,-1.34055 -1.693334,-1.19945 -2.892778,-3.38667 l -2.469445,1.48167 q 3.386667,6.13833 10.160001,6.13833 3.951111,0 6.773333,-2.39889 2.751667,-2.32833 2.751667,-6.13833 z"
         style="font-style:normal;font-variant:normal;font-weight:normal;font-stretch:normal;font-size:70.55555725px;font-family:GeosansLight;-inkscape-font-specification:GeosansLight;stroke-width:0.26458332px"
         id="path4497" />
      <path
         style="font-style:normal;font-variant:normal;font-weight:normal;font-stretch:normal;font-size:70.55555725px;font-family:GeosansLight;-inkscape-font-specification:GeosansLight;stroke-width:0.26458332px"
         d="m 77.331196,151.27809 v -2.89285 h 30.384194 v 2.89285 z"
         id="path4521"
         inkscape:connector-curvature="0" />
      <path
         style="font-style:normal;font-variant:normal;font-weight:normal;font-stretch:normal;font-size:70.55555725px;font-family:GeosansLight;-inkscape-font-specification:GeosansLight;stroke-width:0.99999994px"
         d="m 252.58008,508.55859 v 52.26758 h -14.9336 v 10.9336 h 14.9336 v 133.19921 h 10.93164 V 571.75977 h 15.71289 v -10.9336 h -15.71289 v -52.26758 z"
         id="path4499"
         transform="scale(0.26458333)"
         inkscape:connector-curvature="0"
         sodipodi:nodetypes="ccccccccccccc" />
      <path
         d="m 107.47871,171.98594 q 0,-6.35 -4.37444,-10.72444 -4.374445,-4.37445 -10.653889,-4.37445 -6.350001,0 -10.65389,4.445 -4.374444,4.37445 -4.374444,10.65389 0,6.35 4.374444,10.72445 4.303889,4.30388 10.65389,4.30388 6.35,0 10.724449,-4.37444 4.30388,-4.30389 4.30388,-10.65389 z m -2.82222,0 q 0,5.08 -3.59833,8.67833 -3.527779,3.52778 -8.607779,3.52778 -5.009445,0 -8.607778,-3.59833 -3.598334,-3.59833 -3.598334,-8.60778 0,-4.93889 3.668889,-8.60778 3.598334,-3.66889 8.537223,-3.66889 5.150555,0 8.678329,3.59834 3.52778,3.52778 3.52778,8.67833 z"
         style="font-style:normal;font-variant:normal;font-weight:normal;font-stretch:normal;font-size:70.55555725px;font-family:GeosansLight;-inkscape-font-specification:GeosansLight;stroke-width:0.26458332px"
         id="path4501" />
      <path
         d="m 138.45426,186.59094 v -17.85055 q 0,-11.78278 -11.50056,-11.78278 -6.06778,0 -8.67833,4.30389 v -26.95223 h -2.89278 v 52.21112 h 2.89278 v -18.97945 q 0,-3.52778 2.61055,-5.64444 2.54,-2.11667 6.06778,-2.11667 8.60778,0 8.60778,9.24278 v 17.56833 z"
         style="font-style:normal;font-variant:normal;font-weight:normal;font-stretch:normal;font-size:70.55555725px;font-family:GeosansLight;-inkscape-font-specification:GeosansLight;stroke-width:0.26458332px"
         id="path4503" />
      <path
         d="m 143.3518,151.52483 c -95.567867,96.98345 -47.783933,48.49172 0,0 z m 3.03389,34.99556 v -29.13945 h -2.89278 v 29.13945 z"
         style="font-style:normal;font-variant:normal;font-weight:normal;font-stretch:normal;font-size:70.55555725px;font-family:GeosansLight;-inkscape-font-specification:GeosansLight;stroke-width:0.26458332px"
         id="path4505"
         inkscape:connector-curvature="0"
         sodipodi:nodetypes="ccccccc" />
      <path
         d="m 183.89093,171.98594 q 0,-6.35 -4.37444,-10.72444 -4.37445,-4.37445 -10.65389,-4.37445 -6.35,0 -10.65389,4.445 -4.37445,4.37445 -4.37445,10.65389 0,6.35 4.37445,10.72445 4.30389,4.30388 10.65389,4.30388 6.35,0 10.72444,-4.37444 4.30389,-4.30389 4.30389,-10.65389 z m -2.82222,0 q 0,5.08 -3.59834,8.67833 -3.52777,3.52778 -8.60777,3.52778 -5.00945,0 -8.60778,-3.59833 -3.59833,-3.59833 -3.59833,-8.60778 0,-4.93889 3.66888,-8.60778 3.59834,-3.66889 8.53723,-3.66889 5.15055,0 8.67833,3.59834 3.52778,3.52778 3.52778,8.67833 z"
         style="font-style:normal;font-variant:normal;font-weight:normal;font-stretch:normal;font-size:70.55555725px;font-family:GeosansLight;-inkscape-font-specification:GeosansLight;stroke-width:0.26458332px"
         id="path4507" />
      <circle
         id="path4523"
         cx="145.05902"
         cy="149.62294"
         r="2.5691473"
         style="stroke-width:0.07000434px" />
      <path
         style="font-style:normal;font-variant:normal;font-weight:normal;font-stretch:normal;font-size:70.55555725px;line-height:6.61458302px;font-family:GeosansLight;-inkscape-font-specification:GeosansLight;letter-spacing:0px;word-spacing:0px;fill:#000000;fill-opacity:1;stroke:none;stroke-width:0.26458332px;stroke-linecap:butt;stroke-linejoin:miter;stroke-opacity:1"
         d="m 154.11471,192.42722 v 2.89285 h 30.3842 v -2.89285 z"
         id="path4521-3"
         inkscape:connector-curvature="0" />
    </g>
    <text
       xml:space="preserve"
       style="font-style:normal;font-weight:normal;font-size:10.58333302px;line-height:6.61458302px;font-family:sans-serif;letter-spacing:0px;word-spacing:0px;fill:#000000;fill-opacity:1;stroke:none;stroke-width:0.26458332px;stroke-linecap:butt;stroke-linejoin:miter;stroke-opacity:1"
       x="53.602432"
       y="165.66542"
       id="text4512"><tspan
         sodipodi:role="line"
         id="tspan4510"
         x="53.602432"
         y="171.72189"
         style="stroke-width:0.26458332px"></tspan></text>
  </g>
</svg>
